<?xml version="1.0" encoding="UTF-8"?><svg id="b" xmlns="http://www.w3.org/2000/svg" width="1839.35" height="1839.32" viewBox="0 0 1839.35 1839.32"><g id="c"><g id="d"><g id="e"><path d="M1511.22,1306.8c192.2-31.68,329.32-203.06,328.12-387.14,0-216.68-176.27-392.96-392.93-392.96-36.29,0-71.54,4.95-105.06,14.26-26.17,7.26-50.26-16.85-42.99-43.02,9.29-33.44,14.25-68.65,14.25-105.01C1312.61,176.27,1136.34,0,919.68,0c-186.32-.16-345.51,131.09-384.03,309.51-4.64,21.51-27.63,33.53-47.88,24.94l-57.79-24.52c-11.35-4.85-23.36-7.31-35.71-7.31-30.11,0-58.21,14.85-75.09,39.6-13.75,20.07-18.85,44.29-14.37,68.2,1.72,22.29,18.46,41.94,39.81,59.33,23.3,18.99,13.77,56.87-15.88,61.8C145.52,561.97-2.19,726.12.02,919.66c0,216.66,176.27,392.93,392.93,392.93,36.29,0,71.54-4.95,105.07-14.26,26.17-7.26,50.26,16.85,42.99,43.02-9.29,33.44-14.25,68.66-14.25,105.01,0,216.68,176.27,392.96,392.93,392.96,186.14.14,345.18-130.81,383.91-308.99,4.67-21.51,27.69-33.51,47.93-24.87l57.55,24.54,1.37.57c11.22,4.53,22.93,6.82,34.83,6.82,39.89,0,74.9-25.79,87.13-64.17,12.14-38.1-1.76-79.33-34.57-102.58l-.58-.41c-26.09-17.77-17.18-58.3,13.97-63.43ZM376.54,381.52c4-5.86,10.63-9.36,17.73-9.36,2.9,0,5.73.58,8.39,1.72l168.33,71.41v95.2l-188.86-129.1c-4.74-3.25-7.94-8.14-8.99-13.77-1.06-5.64.15-11.35,3.39-16.09ZM1466.15,1452.13c-3,9.42-11.39,15.74-20.88,15.74-2.93,0-5.89-.6-8.81-1.77l-168.1-71.68v-95.96l189.16,128.85c8.35,5.92,11.62,15.41,8.62,24.83ZM1446.42,1236.74h-1.11c-38.49-.63-80.49-10.14-125.21-26.26-15.86-6.92-31.03-15.08-45.41-24.37-13.37-8.66-26.04-18.27-37.92-28.79v289.04c0,12.83-.79,25.5-2.28,37.92-18.8,157.04-152.8,279.18-314.8,279.18-174.86,0-317.08-142.25-317.08-317.11s142.22-317.08,317.08-317.08c56.19,0,109,14.7,154.82,40.45,5.72,3.22,11.38,6.61,16.88,10.18v146.42c-5.66-8.09-11.85-15.74-18.58-22.91-5.12-5.5-10.52-10.68-16.21-15.61-14.22-12.26-30.05-22.69-47.18-30.85-27.21-12.96-57.65-20.23-89.72-20.23-115.61,0-209.63,94.05-209.63,209.63s94.02,209.66,209.63,209.66c102.65,0,188.23-74.17,206.12-171.73,2.28-12.29,3.51-24.97,3.51-37.92v-330.13c-12.52-7.36-25.16-15.01-37.92-22.82-63.9-39.19-130.33-83.31-197.96-128.22-48.54-32.27-97.53-64.76-145.44-95.28-1.3-.82-2.59-1.64-3.86-2.47-11.44-7.27-22.79-14.38-34.07-21.4v73.6c0,12.83-.79,25.47-2.28,37.92-18.8,157.01-152.8,279.15-314.83,279.15-174.83,0-317.08-142.25-317.08-317.08,0-162.03,122.15-296.03,279.15-314.83,12.45-1.49,25.09-2.28,37.92-2.28,2.05,0,4.11.03,6.16.06,31.04.76,64.16,7.11,99.11,17.92,21.49,6.67,43.68,15.01,66.46,24.81,12.45,5.34,25.09,11.12,37.92,17.32v-269.74c0-12.83.79-25.47,2.28-37.92,18.8-157.04,152.8-279.15,314.8-279.15,174.83,0,317.08,142.25,317.08,317.08s-142.25,317.08-317.08,317.08c-56.16,0-108.94-14.7-154.73-40.39-5.78-3.26-11.44-6.64-16.97-10.24v-146.42c5.62,8.06,11.85,15.71,18.55,22.88,5.18,5.56,10.65,10.84,16.4,15.8,14.19,12.23,29.99,22.63,47.12,30.75,27.18,12.93,57.58,20.16,89.63,20.16,115.61,0,209.63-94.02,209.63-209.63s-94.02-209.63-209.63-209.63c-102.65,0-188.23,74.14-206.15,171.7-2.24,12.29-3.48,24.97-3.48,37.92v327.6c12.51,7.33,25.16,14.89,37.92,22.66,66.05,40.29,134.82,85.96,204.89,132.48,46.2,30.69,92.82,61.66,138.52,90.86,1.14.73,2.27,1.45,3.41,2.18,11.57,7.39,23.07,14.66,34.51,21.77v-70.82c0-12.83.79-25.5,2.27-37.92,18.8-157.04,152.8-279.18,314.83-279.18,174.83,0,317.08,142.25,317.08,317.11,0,162.25-122.56,296.44-279.94,314.9-12.2,1.42-24.59,2.18-37.13,2.18Z"/><path d="M1446.42,710c-102.65,0-188.23,74.17-206.15,171.73-2.24,12.29-3.51,24.97-3.51,37.92,0,38.94,10.71,75.44,29.33,106.72,2.69,4.55,5.56,8.97,8.6,13.31,22.09,31.51,52.59,56.66,88.24,72.21,25.6,11.16,53.82,17.38,83.5,17.38h.82c12.96-.06,25.66-1.36,37.95-3.67,97.12-18.24,170.85-103.63,170.85-205.96,0-115.61-94.05-209.66-209.63-209.66Z"/><path d="M564.68,799.6c-25.73-36.66-62.86-64.76-106.22-79.04-18.43-6.07-37.92-9.67-58.18-10.37-2.47-.09-4.93-.19-7.33-.19-12.96,0-25.6,1.26-37.92,3.51-97.53,17.92-171.7,103.5-171.7,206.15,0,115.57,94.05,209.63,209.63,209.63,102.65,0,188.23-74.17,206.15-171.7,2.24-12.33,3.51-24.97,3.51-37.92,0-40.33-11.47-78-31.29-109.98-2.12-3.45-4.33-6.79-6.64-10.08Z"/><path d="M382.14,410.45l188.86,129.1v-95.2l-168.33-71.41c-2.66-1.14-5.49-1.72-8.39-1.72-7.1,0-13.73,3.5-17.73,9.36-3.25,4.74-4.45,10.46-3.39,16.09,1.06,5.63,4.25,10.52,8.99,13.77Z" fill="#fff"/><path d="M1457.53,1426.37l-189.16-128.85v95.96l168.1,71.68c2.91,1.18,5.87,1.77,8.81,1.77,9.49,0,17.88-6.33,20.88-15.74,3-9.42-.27-18.91-8.62-24.83Z" fill="#fff"/><path d="M1446.42,601.62c-162.03,0-296.03,122.15-314.83,279.18-1.48,12.42-2.27,25.09-2.27,37.92v70.82c-11.44-7.11-22.94-14.38-34.51-21.77-1.14-.73-2.27-1.45-3.41-2.18-45.7-29.2-92.31-60.17-138.52-90.86-70.06-46.52-138.83-92.19-204.89-132.48-12.77-7.77-25.41-15.33-37.92-22.66v-327.6c0-12.96,1.23-25.63,3.48-37.92,17.92-97.56,103.5-171.7,206.15-171.7,115.61,0,209.63,94.02,209.63,209.63s-94.02,209.63-209.63,209.63c-32.05,0-62.45-7.24-89.63-20.16-17.13-8.12-32.93-18.52-47.12-30.75-5.75-4.96-11.22-10.24-16.4-15.8-6.7-7.17-12.93-14.82-18.55-22.88v146.42c5.53,3.6,11.19,6.98,16.97,10.24,45.79,25.69,98.57,40.39,154.73,40.39,174.83,0,317.08-142.25,317.08-317.08s-142.25-317.08-317.08-317.08c-162,0-296,122.12-314.8,279.15-1.49,12.45-2.28,25.09-2.28,37.92v269.74c-12.83-6.19-25.47-11.98-37.92-17.32-22.79-9.8-44.97-18.14-66.46-24.81-34.95-10.81-68.07-17.16-99.11-17.92-2.05-.03-4.11-.06-6.16-.06-12.83,0-25.47.79-37.92,2.28-157.01,18.8-279.15,152.8-279.15,314.83,0,174.83,142.25,317.08,317.08,317.08,162.03,0,296.03-122.15,314.83-279.15,1.49-12.45,2.28-25.09,2.28-37.92v-73.6c11.28,7.02,22.63,14.13,34.07,21.4,1.27.82,2.56,1.64,3.86,2.47,47.91,30.53,96.9,63.02,145.44,95.28,67.63,44.91,134.06,89.03,197.96,128.22,12.77,7.81,25.41,15.45,37.92,22.82v330.13c0,12.96-1.23,25.63-3.51,37.92-17.89,97.56-103.47,171.73-206.12,171.73-115.61,0-209.63-94.05-209.63-209.66s94.02-209.63,209.63-209.63c32.08,0,62.51,7.27,89.72,20.23,17.13,8.15,32.96,18.58,47.18,30.84,5.69,4.93,11.09,10.11,16.21,15.61,6.73,7.17,12.93,14.82,18.58,22.91v-146.42c-5.5-3.57-11.16-6.95-16.88-10.18-45.82-25.76-98.63-40.45-154.82-40.45-174.86,0-317.08,142.25-317.08,317.08s142.22,317.11,317.08,317.11c162,0,296-122.15,314.8-279.18,1.49-12.42,2.28-25.09,2.28-37.92v-289.04c11.88,10.52,24.56,20.13,37.92,28.79,14.38,9.29,29.55,17.45,45.41,24.37,44.72,16.12,86.72,25.63,125.21,26.26h1.11c12.55,0,24.94-.76,37.13-2.18,157.38-18.46,279.94-152.64,279.94-314.9,0-174.86-142.25-317.11-317.08-317.11ZM599.1,956.65c-17.92,97.53-103.5,171.7-206.15,171.7-115.57,0-209.63-94.05-209.63-209.63,0-102.65,74.17-188.23,171.7-206.15,12.33-2.24,24.97-3.51,37.92-3.51,2.4,0,4.87.09,7.33.19,20.26.7,39.76,4.3,58.18,10.37,43.36,14.28,80.49,42.38,106.22,79.04,2.31,3.29,4.52,6.64,6.64,10.08,19.82,31.98,31.29,69.65,31.29,109.98,0,12.96-1.26,25.6-3.51,37.92ZM1485.19,1124.69c-12.29,2.31-25,3.6-37.95,3.67h-.82c-29.68,0-57.9-6.23-83.5-17.38-35.65-15.55-66.15-40.71-88.24-72.21-3.04-4.33-5.91-8.75-8.6-13.3-18.61-31.29-29.33-67.79-29.33-106.72,0-12.96,1.26-25.63,3.51-37.92,17.92-97.56,103.5-171.73,206.15-171.73,115.57,0,209.63,94.05,209.63,209.66,0,102.33-73.73,187.72-170.85,205.96Z" fill="#fff"/></g></g></g></svg>